<svg id="visual" viewBox="0 0 1200 200" width="1200" height="200" xmlns="http://www.w3.org/2000/svg" xmlns:xlink="http://www.w3.org/1999/xlink" version="1.1"><rect x="0" y="0" width="1200" height="200" fill="#f000"></rect><path d="M0 83L40 71.2C80 59.3 160 35.7 240 47.2C320 58.7 400 105.3 480 131.7C560 158 640 164 720 152.8C800 141.7 880 113.3 960 89C1040 64.7 1120 44.3 1160 34.2L1200 24L1200 0L1160 0C1120 0 1040 0 960 0C880 0 800 0 720 0C640 0 560 0 480 0C400 0 320 0 240 0C160 0 80 0 40 0L0 0Z" fill="#ebfcff" stroke-linecap="round" stroke-linejoin="miter"></path></svg>